# xmcd
#
# Track frame offsets:
#	150
#	10038
#	23632
#	33641
#	43193
#	55506
#	69631
#	78349
#	90827
#	99343
#	113456
#	121774
#	137598
#	149427
#	157853
#	173485
#	185349
#	194659
#	203708
#	217974
#	229623
#	240888
#	257356
#	269013
#
# Disc length: 3815 seconds
#
# Revision: 6
# Processed by: cddbd v1.5.2PL0 Copyright (c) Steve Scherf et al.
# Submitted via: EasyCDDAExtractor 12.0.7.1
#
DISCID=2a0ee518
DTITLE=Byrds - The Byrds [Box Set] cd2
DYEAR=1990
DGENRE=Folk/Rock - 
TTITLE0=Mr. Spaceman
TTITLE1=John Riley
TTITLE2=Roll Over Beethoven
TTITLE3=So You Want To Be A Rock 'n' Roll Star
TTITLE4=Have You Seen Her Face
TTITLE5=My Back Pages
TTITLE6=Time Between
TTITLE7=It Happens Each Day
TTITLE8=Renaissance Fair
TTITLE9=Everybody's Been Burned
TTITLE10=The Girl Wth No Name
TTITLE11=Triad
TTITLE12=Lady Friend
TTITLE13=Old John Robertson
TTITLE14=Goin' Back
TTITLE15=Draft Morning
TTITLE16=Wasn't Born To Follow
TTITLE17=Dolphin's Smile
TTITLE18=Reputation
TTITLE19=You Ain't Going Nowhere
TTITLE20=The Christian Life
TTITLE21=I'm A Pilgrim
TTITLE22=Pretty Boy Floyd
TTITLE23=You Don't Miss Your Water
EXTD=BYRDS Boxset (1965 - 1990]\n4 CD-Set\nCD 1: We Have Ignition\nCD 2: Cruis
EXTD=ing Altitude\nCD 3: Full Throttle\nCD 4: Final Approach\nLabel: Columbia 
EXTD=/ Legacy\n46773
EXTT0=
EXTT1=
EXTT2=
EXTT3=
EXTT4=
EXTT5=
EXTT6=
EXTT7=
EXTT8=
EXTT9=
EXTT10=
EXTT11=
EXTT12=
EXTT13=
EXTT14=
EXTT15=
EXTT16=
EXTT17=
EXTT18=
EXTT19=
EXTT20=
EXTT21=
EXTT22=
EXTT23=
PLAYORDER=
